<svg height="478" width="720" xmlns="http://www.w3.org/2000/svg">
<rect height="478" fill="#555" width="720"></rect>
<text fill="#7f7" font-family="Courier New" font-size="12" xml:space="preserve">
<tspan x="10" y="26">22 megabytes installed</tspan>
<tspan x="10" y="42"></tspan>
<tspan x="10" y="58">node_modules</tspan>
<tspan x="10" y="74">└─┬ cold-brew@1.0.36 </tspan>
<tspan x="10" y="90">  ├─┬ chromedriver@2.29.0 </tspan>
<tspan x="10" y="106">  │ ├── adm-zip@0.4.7 </tspan>
<tspan x="10" y="122">  │ ├── kew@0.7.0 </tspan>
<tspan x="10" y="138">  │ ├─┬ mkdirp@0.5.1 </tspan>
<tspan x="10" y="154">  │ │ └── minimist@0.0.8 </tspan>
<tspan x="10" y="170">  │ └─┬ rimraf@2.6.1 </tspan>
<tspan x="10" y="186">  │   └─┬ glob@7.1.1 </tspan>
<tspan x="10" y="202">  │     ├── fs.realpath@1.0.0 </tspan>
<tspan x="10" y="218">  │     ├─┬ inflight@1.0.6 </tspan>
<tspan x="10" y="234">  │     │ └── wrappy@1.0.2 </tspan>
<tspan x="10" y="250">  │     ├── inherits@2.0.3 </tspan>
<tspan x="10" y="266">  │     ├─┬ minimatch@3.0.3 </tspan>
<tspan x="10" y="282">  │     │ └─┬ brace-expansion@1.1.7 </tspan>
<tspan x="10" y="298">  │     │   ├── balanced-match@0.4.2 </tspan>
<tspan x="10" y="314">  │     │   └── concat-map@0.0.1 </tspan>
<tspan x="10" y="330">  │     ├── once@1.4.0 </tspan>
<tspan x="10" y="346">  │     └── path-is-absolute@1.0.1 </tspan>
<tspan x="10" y="362">  └─┬ selenium-webdriver@3.3.0 </tspan>
<tspan x="10" y="378">    ├─┬ tmp@0.0.30 </tspan>
<tspan x="10" y="394">    │ └── os-tmpdir@1.0.2 </tspan>
<tspan x="10" y="410">    └─┬ xml2js@0.4.17 </tspan>
<tspan x="10" y="426">      ├── sax@1.2.2 </tspan>
<tspan x="10" y="442">      └─┬ xmlbuilder@4.2.1 </tspan>
<tspan x="10" y="458">        └── lodash@4.17.4</tspan>
</text>
</svg>
